<?xml version="1.0" encoding="utf-8"?>
<svg viewBox="0 0 500 500" xmlns="http://www.w3.org/2000/svg" xmlns:bx="https://boxy-svg.com">
  <path d="M 207.6 27.591 Q 249.908 3.165 292.216 27.591 L 419.138 100.87 Q 461.446 125.297 461.446 174.149 L 461.446 320.707 Q 461.446 369.559 419.138 393.986 L 292.216 467.265 Q 249.908 491.691 207.6 467.265 L 80.678 393.986 Q 38.37 369.56 38.37 320.707 L 38.37 174.149 Q 38.37 125.296 80.678 100.87 Z" style="fill: rgb(255, 255, 255);" transform="matrix(0.975926, 0.218102, -0.218102, 0.975926, 59.980854, -48.548657)" bx:shape="n-gon 249.908 247.428 244.263 244.263 6 0.2 1@7c7e71fc"/>
  <path d="M 244.546 62.093 Q 269.791 18.192 295.036 62.093 L 449.786 331.206 Q 475.031 375.107 424.542 375.107 L 115.04 375.107 Q 64.551 375.107 89.796 331.206 Z" style="" transform="matrix(0.979935, 0.199316, -0.199316, 0.979935, 37.067387, -58.618011)" bx:shape="triangle 64.551 18.192 410.48 356.915 0.5 0.123 1@7ae546b9"/>
  <path d="M 194.504 23.227 Q 229.408 4.717 264.311 23.227 L 369.023 78.759 Q 403.927 97.269 334.119 97.269 L 124.696 97.269 Q 54.888 97.269 89.792 78.759 Z" style="" transform="matrix(0.669123, -0.743152, 0.743152, 0.669123, -75.675339, 258.791809)" bx:shape="triangle 54.888 4.717 349.039 92.552 0.5 0.2 1@f0af70aa" bx:origin="0.525 0.604"/>
  <path d="M 194.504 23.227 Q 229.408 4.717 264.311 23.227 L 369.023 78.759 Q 403.927 97.269 334.119 97.269 L 124.696 97.269 Q 54.888 97.269 89.792 78.759 Z" style="" transform="matrix(0.332302, 0.943173, -0.943173, 0.332302, 393.492401, -44.997551)" bx:shape="triangle 54.888 4.717 349.039 92.552 0.5 0.2 1@f0af70aa" bx:origin="0.525 0.604"/>
  <path d="M 194.504 23.227 Q 229.408 4.717 264.312 23.227 L 369.024 78.759 Q 403.928 97.269 334.12 97.269 L 124.696 97.269 Q 54.888 97.269 89.792 78.759 Z" style="" transform="matrix(-0.978381, -0.206812, 0.206812, -0.978381, 422.153717, 516.39856)" bx:shape="triangle 54.888 4.717 349.04 92.552 0.5 0.2 1@a9346e3b" bx:origin="0.525 0.604"/>
</svg>